<svg xmlns="http://www.w3.org/2000/svg" height="433.155" width="510">
    <defs>
        <linearGradient x1="517.5" y1="308.36" gradientTransform="translate(-200 -57)" x2="678.5" gradientUnits="userSpaceOnUse" y2="464.36" id="c">
            <stop offset="0" stop-color="#cfd5c9"/>
            <stop offset=".339" stop-color="#f9e2c3"/>
            <stop offset=".516" stop-color="#bdd1cb"/>
            <stop offset=".75" stop-color="#dcd9c7"/>
            <stop offset="1" stop-color="#b1cdcd"/>
        </linearGradient>
        <linearGradient x1="517.5" x2="678.5" gradientTransform="matrix(.8547 0 0 .86556 -234.604 157.283)" y1="308.36" gradientUnits="userSpaceOnUse" y2="464.36" id="d">
            <stop offset="0" stop-color="#cfd5c9"/>
            <stop offset=".339" stop-color="#f9e2c3"/>
            <stop offset=".516" stop-color="#bdd1cb"/>
            <stop offset=".75" stop-color="#dcd9c7"/>
            <stop offset="1" stop-color="#b1cdcd"/>
        </linearGradient>
        <linearGradient x1="517.5" y1="308.36" gradientTransform="matrix(.8547 0 0 .86556 -291.377 96.577)" x2="678.5" gradientUnits="userSpaceOnUse" y2="464.36" id="f">
            <stop offset="0" stop-color="#cfd5c9"/>
            <stop offset=".339" stop-color="#f9e2c3"/>
            <stop offset=".516" stop-color="#bdd1cb"/>
            <stop offset=".75" stop-color="#dcd9c7"/>
            <stop offset="1" stop-color="#b1cdcd"/>
        </linearGradient>
        <linearGradient x1="517.5" y1="308.36" gradientTransform="matrix(.8547 0 0 .86556 -254.114 137.97)" x2="678.5" gradientUnits="userSpaceOnUse" y2="464.36" id="e">
            <stop offset="0" stop-color="#cfd5c9"/>
            <stop offset=".339" stop-color="#f9e2c3"/>
            <stop offset=".516" stop-color="#bdd1cb"/>
            <stop offset=".75" stop-color="#dcd9c7"/>
            <stop offset="1" stop-color="#b1cdcd"/>
        </linearGradient>
        <linearGradient x1="517.5" y1="308.36" gradientTransform="translate(-331 -277)" x2="678.5" gradientUnits="userSpaceOnUse" y2="464.36" id="g">
            <stop offset="0" stop-color="#cfd5c9"/>
            <stop offset=".339" stop-color="#f9e2c3"/>
            <stop offset=".516" stop-color="#bdd1cb"/>
            <stop offset=".75" stop-color="#dcd9c7"/>
            <stop offset="1" stop-color="#b1cdcd"/>
        </linearGradient>
        <linearGradient x1="517.5" y1="308.36" gradientTransform="translate(-517.5 -289.485)" x2="678.5" gradientUnits="userSpaceOnUse" y2="464.36" id="b">
            <stop offset="0" stop-color="#cfd5c9"/>
            <stop offset=".339" stop-color="#f9e2c3"/>
            <stop offset=".516" stop-color="#bdd1cb"/>
            <stop offset=".75" stop-color="#dcd9c7"/>
            <stop offset="1" stop-color="#b1cdcd"/>
        </linearGradient>
        <linearGradient x1="517.5" y1="308.36" gradientTransform="translate(-168.5 -289.485)" x2="678.5" gradientUnits="userSpaceOnUse" y2="464.36" id="a">
            <stop offset="0" stop-color="#cfd5c9"/>
            <stop offset=".339" stop-color="#f9e2c3"/>
            <stop offset=".516" stop-color="#bdd1cb"/>
            <stop offset=".75" stop-color="#dcd9c7"/>
            <stop offset="1" stop-color="#b1cdcd"/>
        </linearGradient>
    </defs>
    <path d="M154.75 194.125l87.5 87.5m-236.5 63.5l87.5 87.5m-75.5-221.5l87.5 87.5" fill="none" stroke="#e35a5a" stroke-width="1.5" stroke-dasharray="6,1.5"/>
    <rect x="349.5" y="19.377" stroke-miterlimit="0" width="160" height="155" ry="1.294" opacity=".6" fill="url(#a)" stroke="#445088"/>
    <rect x="362.5" y="33.877" stroke-miterlimit="0" width="31.5" height="30" ry="1.294" fill="#9e6ecf" stroke="#633296"/>
    <rect x="463.75" y="33.877" stroke-miterlimit="0" width="31.5" height="30" ry="1.294" fill="#9e6ecf" stroke="#633296"/>
    <rect x="412.88" y="81.002" stroke-miterlimit="0" width="31.5" height="30" ry="1.294" fill="#9e6ecf" stroke="#633296"/>
    <rect x="362.12" y="128.125" stroke-miterlimit="0" width="31.5" height="30" ry="1.294" fill="#9e6ecf" stroke="#633296"/>
    <rect x="463.38" y="128.125" stroke-miterlimit="0" width="31.5" height="30" ry="1.294" fill="#9e6ecf" stroke="#633296"/>
    <rect x=".5" y="19.377" stroke-miterlimit="0" width="160" height="155" ry="1.294" opacity=".6" fill="url(#b)" stroke="#445088"/>
    <rect x="63.75" y="33.877" stroke-miterlimit="0" width="31.5" height="30" ry="1.294" fill="#ff6" stroke="#c8c800"/>
    <rect x="13.625" y="81.002" stroke-miterlimit="0" width="31.5" height="30" ry="1.294" fill="#ff6" stroke="#c8c800"/>
    <rect x="114.88" y="81.002" stroke-miterlimit="0" width="31.5" height="30" ry="1.294" fill="#ff6" stroke="#c8c800"/>
    <rect x="13.125" y="128.125" stroke-miterlimit="0" width="31.5" height="30" ry="1.294" fill="#ff6" stroke="#c8c800"/>
    <g transform="translate(-12.5 -12.485)">
        <rect x="318" y="251.86" stroke-miterlimit="0" width="160" height="155" ry="1.294" fill="url(#c)" stroke="#445087"/>
        <rect x="331" y="266.36" stroke-miterlimit="0" width="31.5" height="30" ry="1.294" fill="#fea549" stroke="#c66802"/>
        <rect x="381.25" y="266.36" stroke-miterlimit="0" width="31.5" height="30" ry="1.294" fill="#ff6" stroke="#c8c800"/>
        <rect x="432.25" y="266.36" stroke-miterlimit="0" width="31.5" height="30" ry="1.294" fill="#9e6ecf" stroke="#633296"/>
        <rect x="331.12" y="313.49" stroke-miterlimit="0" width="31.5" height="30" ry="1.294" fill="#ff6" stroke="#c8c800"/>
        <rect x="381.38" y="313.49" stroke-miterlimit="0" width="31.5" height="30" ry="1.294" fill="#9e6ecf" stroke="#633296"/>
        <rect x="432.38" y="313.49" stroke-miterlimit="0" width="31.5" height="30" ry="1.294" fill="#ff6" stroke="#c8c800"/>
        <rect x="330.62" y="360.61" stroke-miterlimit="0" width="31.5" height="30" ry="1.294" fill="#ff6" stroke="#c8c800"/>
        <rect x="380.88" y="360.61" stroke-miterlimit="0" width="31.5" height="30" ry="1.294" fill="#fea549" stroke="#c66802"/>
        <rect x="431.88" y="360.61" stroke-miterlimit="0" width="31.5" height="30" ry="1.294" fill="#9e6ecf" stroke="#633296"/>
    </g>
    <g stroke-miterlimit="0" transform="matrix(.99018 -.1398 -.09415 .99556 -85.5 -119.485)" stroke-width=".86">
        <rect x="208.13" y="424.62" width="136.75" height="134.16" ry="1.12" opacity=".5" fill="url(#d)" stroke="#445087"/>
        <rect x="219.24" y="437.17" width="26.923" height="25.967" ry="1.12" fill="#9e6ecf" stroke="#633296"/>
        <rect x="305.78" y="437.17" width="26.923" height="25.967" ry="1.12" fill="#9e6ecf" stroke="#633296"/>
        <rect x="262.3" y="477.96" width="26.923" height="25.967" ry="1.12" fill="#9e6ecf" stroke="#633296"/>
        <rect x="218.92" y="518.75" width="26.923" height="25.967" ry="1.12" fill="#9e6ecf" stroke="#633296"/>
        <rect x="305.46" y="518.75" width="26.923" height="25.967" ry="1.12" fill="#9e6ecf" stroke="#633296"/>
    </g>
    <g stroke-miterlimit="0" transform="matrix(.99018 -.1398 -.09415 .99556 -83.5 -119.485)" stroke-width=".86">
        <rect x="188.62" y="405.31" width="136.75" height="134.16" ry="1.12" opacity=".5" fill="url(#e)" stroke="#445087"/>
        <rect x="199.73" y="417.86" width="26.923" height="25.967" ry="1.12" fill="#fea549" stroke="#c66802"/>
        <rect x="242.68" y="417.86" width="26.923" height="25.967" ry="1.12" fill="#fea549" stroke="#c66802"/>
        <rect x="286.38" y="458.65" width="26.923" height="25.967" ry="1.12" fill="#fea549" stroke="#c66802"/>
        <rect x="242.36" y="499.44" width="26.923" height="25.967" ry="1.12" fill="#fea549" stroke="#c66802"/>
    </g>
    <g stroke-miterlimit="0" transform="matrix(.99018 -.1398 -.09415 .99556 -69.5 -102.485)" stroke-width=".86">
        <rect x="151.36" y="363.92" width="136.75" height="134.16" ry="1.12" opacity=".5" fill="url(#f)" stroke="#445087"/>
        <rect x="205.42" y="376.47" width="26.923" height="25.967" ry="1.12" fill="#ff6" stroke="#c8c800"/>
        <rect x="162.58" y="417.26" width="26.923" height="25.967" ry="1.12" fill="#ff6" stroke="#c8c800"/>
        <rect x="249.12" y="417.26" width="26.923" height="25.967" ry="1.12" fill="#ff6" stroke="#c8c800"/>
        <rect x="162.15" y="458.04" width="26.923" height="25.967" ry="1.12" fill="#ff6" stroke="#c8c800"/>
    </g>
    <g transform="translate(-12.5 -12.485)">
        <rect x="187" y="31.862" stroke-miterlimit="0" width="160" height="155" ry="1.294" opacity=".6" fill="url(#g)" stroke="#445088"/>
        <rect x="200" y="46.362" stroke-miterlimit="0" width="31.5" height="30" ry="1.294" fill="#fea549" stroke="#c66802"/>
        <rect x="250.25" y="46.362" stroke-miterlimit="0" width="31.5" height="30" ry="1.294" fill="#fea549" stroke="#c66802"/>
        <rect x="301.38" y="93.487" stroke-miterlimit="0" width="31.5" height="30" ry="1.294" fill="#fea549" stroke="#c66802"/>
        <rect x="249.88" y="140.61" stroke-miterlimit="0" width="31.5" height="30" ry="1.294" fill="#fea549" stroke="#c66802"/>
    </g>
    <path d="M137.5 321.875l87.5 87.5" fill="none" stroke="#e35a5a" stroke-width="1.5" stroke-dasharray="6,1.5"/>
    <text y="9.477" x="62.5" font-size="13" style="text-align:start" font-family="sans-serif">
        Instanz
    </text>
    <text y="9.877" x="195.5" font-size="13" style="text-align:start" font-family="sans-serif">
        Konstruktor.prototype
    </text>
    <text y="9.877" x="382.5" font-size="13" style="text-align:start" font-family="sans-serif">
        Object.prototype
    </text>
</svg>
