<svg xmlns="http://www.w3.org/2000/svg">
    <defs>
        <linearGradient id="c" y2="464.36" gradientUnits="userSpaceOnUse" x2="678.5" gradientTransform="translate(-200 -57)" y1="308.36" x1="517.5">
            <stop stop-color="#cfd5c9" offset="0"/>
            <stop stop-color="#f9e2c3" offset=".339"/>
            <stop stop-color="#bdd1cb" offset=".516"/>
            <stop stop-color="#dcd9c7" offset=".75"/>
            <stop stop-color="#b1cdcd" offset="1"/>
        </linearGradient>
        <linearGradient id="d" y2="464.36" gradientUnits="userSpaceOnUse" y1="308.36" gradientTransform="matrix(.8547 0 0 .86556 -234.604 157.283)" x2="678.5" x1="517.5">
            <stop stop-color="#cfd5c9" offset="0"/>
            <stop stop-color="#f9e2c3" offset=".339"/>
            <stop stop-color="#bdd1cb" offset=".516"/>
            <stop stop-color="#dcd9c7" offset=".75"/>
            <stop stop-color="#b1cdcd" offset="1"/>
        </linearGradient>
        <linearGradient id="f" y2="464.36" gradientUnits="userSpaceOnUse" x2="678.5" gradientTransform="matrix(.8547 0 0 .86556 -291.377 96.577)" y1="308.36" x1="517.5">
            <stop stop-color="#cfd5c9" offset="0"/>
            <stop stop-color="#f9e2c3" offset=".339"/>
            <stop stop-color="#bdd1cb" offset=".516"/>
            <stop stop-color="#dcd9c7" offset=".75"/>
            <stop stop-color="#b1cdcd" offset="1"/>
        </linearGradient>
        <linearGradient id="e" y2="464.36" gradientUnits="userSpaceOnUse" x2="678.5" gradientTransform="matrix(.8547 0 0 .86556 -254.114 137.97)" y1="308.36" x1="517.5">
            <stop stop-color="#cfd5c9" offset="0"/>
            <stop stop-color="#f9e2c3" offset=".339"/>
            <stop stop-color="#bdd1cb" offset=".516"/>
            <stop stop-color="#dcd9c7" offset=".75"/>
            <stop stop-color="#b1cdcd" offset="1"/>
        </linearGradient>
        <linearGradient id="g" y2="464.36" gradientUnits="userSpaceOnUse" x2="678.5" gradientTransform="translate(-331 -277)" y1="308.36" x1="517.5">
            <stop stop-color="#cfd5c9" offset="0"/>
            <stop stop-color="#f9e2c3" offset=".339"/>
            <stop stop-color="#bdd1cb" offset=".516"/>
            <stop stop-color="#dcd9c7" offset=".75"/>
            <stop stop-color="#b1cdcd" offset="1"/>
        </linearGradient>
        <linearGradient id="b" y2="464.36" gradientUnits="userSpaceOnUse" x2="678.5" gradientTransform="translate(-505 -277)" y1="308.36" x1="517.5">
            <stop stop-color="#cfd5c9" offset="0"/>
            <stop stop-color="#f9e2c3" offset=".339"/>
            <stop stop-color="#bdd1cb" offset=".516"/>
            <stop stop-color="#dcd9c7" offset=".75"/>
            <stop stop-color="#b1cdcd" offset="1"/>
        </linearGradient>
        <linearGradient id="a" y2="464.36" gradientUnits="userSpaceOnUse" x2="678.5" gradientTransform="translate(-156 -277)" y1="308.36" x1="517.5">
            <stop stop-color="#cfd5c9" offset="0"/>
            <stop stop-color="#f9e2c3" offset=".339"/>
            <stop stop-color="#bdd1cb" offset=".516"/>
            <stop stop-color="#dcd9c7" offset=".75"/>
            <stop stop-color="#b1cdcd" offset="1"/>
        </linearGradient>
    </defs>
    <path d="M167.25 206.61l87.5 87.5M18.25 357.61l87.5 87.5M30.25 223.61l87.5 87.5" stroke="#e35a5a" stroke-width="1.5" fill="none" stroke-dasharray="6,1.5"/>
    <title>
        Object.prototype
    </title>
    <rect opacity=".6" ry="1.294" height="155" width="160" stroke="#445088" stroke-miterlimit="0" y="31.862" x="362" fill="url(#a)"/>
    <rect ry="1.294" height="30" width="31.5" stroke="#633296" stroke-miterlimit="0" y="46.362" x="375" fill="#9e6ecf"/>
    <rect ry="1.294" height="30" width="31.5" stroke="#633296" stroke-miterlimit="0" y="46.362" x="476.25" fill="#9e6ecf"/>
    <rect ry="1.294" height="30" width="31.5" stroke="#633296" stroke-miterlimit="0" y="93.487" x="425.38" fill="#9e6ecf"/>
    <rect ry="1.294" height="30" width="31.5" stroke="#633296" stroke-miterlimit="0" y="140.61" x="374.62" fill="#9e6ecf"/>
    <rect ry="1.294" height="30" width="31.5" stroke="#633296" stroke-miterlimit="0" y="140.61" x="475.88" fill="#9e6ecf"/>
    <title>
        Instanz
    </title>
    <rect opacity=".6" ry="1.294" height="155" width="160" stroke="#445088" stroke-miterlimit="0" y="31.862" x="13" fill="url(#b)"/>
    <rect ry="1.294" height="30" width="31.5" stroke="#c8c800" stroke-miterlimit="0" y="46.362" x="76.25" fill="#FF6"/>
    <rect ry="1.294" height="30" width="31.5" stroke="#c8c800" stroke-miterlimit="0" y="93.487" x="26.125" fill="#FF6"/>
    <rect ry="1.294" height="30" width="31.5" stroke="#c8c800" stroke-miterlimit="0" y="93.487" x="127.38" fill="#FF6"/>
    <rect ry="1.294" height="30" width="31.5" stroke="#c8c800" stroke-miterlimit="0" y="140.61" x="25.625" fill="#FF6"/>
    <g>
        <title>
            Gesamt
        </title>
        <rect ry="1.294" height="155" width="160" stroke="#445087" stroke-miterlimit="0" y="251.86" x="318" fill="url(#c)"/>
        <rect ry="1.294" height="30" width="31.5" stroke="#c66802" stroke-miterlimit="0" y="266.36" x="331" fill="#fea549"/>
        <rect ry="1.294" height="30" width="31.5" stroke="#c8c800" stroke-miterlimit="0" y="266.36" x="381.25" fill="#FF6"/>
        <rect ry="1.294" height="30" width="31.5" stroke="#633296" stroke-miterlimit="0" y="266.36" x="432.25" fill="#9e6ecf"/>
        <rect ry="1.294" height="30" width="31.5" stroke="#c8c800" stroke-miterlimit="0" y="313.49" x="331.12" fill="#FF6"/>
        <rect ry="1.294" height="30" width="31.5" stroke="#633296" stroke-miterlimit="0" y="313.49" x="381.38" fill="#9e6ecf"/>
        <rect ry="1.294" height="30" width="31.5" stroke="#c8c800" stroke-miterlimit="0" y="313.49" x="432.38" fill="#FF6"/>
        <rect ry="1.294" height="30" width="31.5" stroke="#c8c800" stroke-miterlimit="0" y="360.61" x="330.62" fill="#FF6"/>
        <rect ry="1.294" height="30" width="31.5" stroke="#c66802" stroke-miterlimit="0" y="360.61" x="380.88" fill="#fea549"/>
        <rect ry="1.294" height="30" width="31.5" stroke="#633296" stroke-miterlimit="0" y="360.61" x="431.88" fill="#9e6ecf"/>
    </g>
    <g transform="matrix(.99018 -.1398 -.09415 .99556 -73 -107)" stroke-miterlimit="0" stroke-width=".86">
        <rect opacity=".5" ry="1.12" height="134.16" width="136.75" stroke="#445087" y="424.62" x="208.13" fill="url(#d)"/>
        <rect ry="1.12" height="25.967" width="26.923" stroke="#633296" y="437.17" x="219.24" fill="#9e6ecf"/>
        <rect ry="1.12" height="25.967" width="26.923" stroke="#633296" y="437.17" x="305.78" fill="#9e6ecf"/>
        <rect ry="1.12" height="25.967" width="26.923" stroke="#633296" y="477.96" x="262.3" fill="#9e6ecf"/>
        <rect ry="1.12" height="25.967" width="26.923" stroke="#633296" y="518.75" x="218.92" fill="#9e6ecf"/>
        <rect ry="1.12" height="25.967" width="26.923" stroke="#633296" y="518.75" x="305.46" fill="#9e6ecf"/>
    </g>
    <g transform="matrix(.99018 -.1398 -.09415 .99556 -71 -107)" stroke-miterlimit="0" stroke-width=".86">
        <rect opacity=".5" ry="1.12" height="134.16" width="136.75" stroke="#445087" y="405.31" x="188.62" fill="url(#e)"/>
        <rect ry="1.12" height="25.967" width="26.923" stroke="#c66802" y="417.86" x="199.73" fill="#fea549"/>
        <rect ry="1.12" height="25.967" width="26.923" stroke="#c66802" y="417.86" x="242.68" fill="#fea549"/>
        <rect ry="1.12" height="25.967" width="26.923" stroke="#c66802" y="458.65" x="286.38" fill="#fea549"/>
        <rect ry="1.12" height="25.967" width="26.923" stroke="#c66802" y="499.44" x="242.36" fill="#fea549"/>
    </g>
    <g transform="matrix(.99018 -.1398 -.09415 .99556 -57 -90)" stroke-miterlimit="0" stroke-width=".86">
        <rect opacity=".5" ry="1.12" height="134.16" width="136.75" stroke="#445087" y="363.92" x="151.36" fill="url(#f)"/>
        <rect ry="1.12" height="25.967" width="26.923" stroke="#c8c800" y="376.47" x="205.42" fill="#FF6"/>
        <rect ry="1.12" height="25.967" width="26.923" stroke="#c8c800" y="417.26" x="162.58" fill="#FF6"/>
        <rect ry="1.12" height="25.967" width="26.923" stroke="#c8c800" y="417.26" x="249.12" fill="#FF6"/>
        <rect ry="1.12" height="25.967" width="26.923" stroke="#c8c800" y="458.04" x="162.15" fill="#FF6"/>
    </g>
    <g>
        <title>
            Konstruktor.prototype
        </title>
        <rect opacity=".6" ry="1.294" height="155" width="160" stroke="#445088" stroke-miterlimit="0" y="31.862" x="187" fill="url(#g)"/>
        <rect ry="1.294" height="30" width="31.5" stroke="#c66802" stroke-miterlimit="0" y="46.362" x="200" fill="#fea549"/>
        <rect ry="1.294" height="30" width="31.5" stroke="#c66802" stroke-miterlimit="0" y="46.362" x="250.25" fill="#fea549"/>
        <rect ry="1.294" height="30" width="31.5" stroke="#c66802" stroke-miterlimit="0" y="93.487" x="301.38" fill="#fea549"/>
        <rect ry="1.294" height="30" width="31.5" stroke="#c66802" stroke-miterlimit="0" y="140.61" x="249.88" fill="#fea549"/>
    </g>
    <path d="M150 334.36l87.5 87.5" stroke="#e35a5a" stroke-width="1.5" fill="none" stroke-dasharray="6,1.5"/>
    <text style="text-align:start" font-size="13" font-family="sans-serif" x="75" y="21.962">
        Instanz
    </text>
    <text style="text-align:start" font-size="13" font-family="sans-serif" x="208" y="22.362">
        Konstruktor.prototype
    </text>
    <text style="text-align:start" font-size="13" font-family="sans-serif" x="395" y="22.362">
        Object.prototype
    </text>
</svg>
